HIERARCHY
ROOT Hips
{
	OFFSET 0.000000 0.000000 0.000000 
	CHANNELS 6 Xposition Yposition Zposition Zrotation Yrotation Xrotation
	JOINT LeftUpLeg
	{
		OFFSET 1.363060 -1.794630 0.839290 
		CHANNELS 3 Zrotation Yrotation Xrotation
		JOINT LeftLeg
		{
			OFFSET 2.448110 -6.726130 0.000000 
			CHANNELS 3 Zrotation Yrotation Xrotation
			JOINT LeftFoot
			{
				OFFSET 2.562200 -7.039590 0.000000 
				CHANNELS 3 Zrotation Yrotation Xrotation
				JOINT LeftToeBase
				{
					OFFSET 0.157640 -0.433110 2.322550 
					CHANNELS 3 Zrotation Yrotation Xrotation
					End Site
					{
						OFFSET 0.000000 0.000000 0.000000 
					}
				}
			}
		}
	}
	JOINT RightUpLeg
	{
		OFFSET -1.305520 -1.794630 0.839290 
		CHANNELS 3 Zrotation Yrotation Xrotation
		JOINT RightLeg
		{
			OFFSET -2.542530 -6.985550 0.000000 
			CHANNELS 3 Zrotation Yrotation Xrotation
			JOINT RightFoot
			{
				OFFSET -2.568260 -7.056230 0.000000 
				CHANNELS 3 Zrotation Yrotation Xrotation
				JOINT RightToeBase
				{
					OFFSET -0.164730 -0.452590 2.363150 
					CHANNELS 3 Zrotation Yrotation Xrotation
					End Site
					{
						OFFSET 0.000000 0.000000 0.000000 
					}
				}
			}
		}
	}
	JOINT Spine
	{
		OFFSET 0.028270 2.035590 -0.193380 
		CHANNELS 3 Zrotation Yrotation Xrotation
		JOINT Spine1
		{
			OFFSET 0.056720 2.048850 -0.042750 
			CHANNELS 3 Zrotation Yrotation Xrotation
			JOINT Neck1
			{
				OFFSET -0.054170 1.746240 0.172020 
				CHANNELS 3 Zrotation Yrotation Xrotation
				JOINT Head
				{
					OFFSET 0.104070 1.761360 -0.123970 
					CHANNELS 3 Zrotation Yrotation Xrotation
					End Site
					{
						OFFSET 0.000000 0.000000 0.000000 
					}
				}
			}
			JOINT LeftArm
			{
				OFFSET 3.362410 1.200890 -0.311210 
				CHANNELS 3 Zrotation Yrotation Xrotation
				JOINT LeftForeArm
				{
					OFFSET 4.983000 -0.000000 -0.000000 
					CHANNELS 3 Zrotation Yrotation Xrotation
					JOINT LeftHand
					{
						OFFSET 3.483560 -0.000000 -0.000000 
						CHANNELS 3 Zrotation Yrotation Xrotation
						JOINT LeftHandIndex1
						{
							OFFSET 0.715260 -0.000000 -0.000000 
							CHANNELS 3 Zrotation Yrotation Xrotation
							End Site
							{
								OFFSET 0.000000 0.000000 0.000000 
							}
						}
					}
				}
			}
			JOINT RightArm
			{
				OFFSET -3.136600 1.374050 -0.404650 
				CHANNELS 3 Zrotation Yrotation Xrotation
				JOINT RightForeArm
				{
					OFFSET -5.241900 -0.000000 -0.000000 
					CHANNELS 3 Zrotation Yrotation Xrotation
					JOINT RightHand
					{
						OFFSET -3.444170 -0.000000 -0.000000 
						CHANNELS 3 Zrotation Yrotation Xrotation
						JOINT RightHandIndex1
						{
							OFFSET -0.622530 -0.000000 -0.000000 
							CHANNELS 3 Zrotation Yrotation Xrotation
							End Site
							{
								OFFSET 0.000000 0.000000 0.000000 
							}
						}
					}
				}
			}
		}
	}
}
MOTION
Frames: 6
Frame Time: 0.041667
9.907101 17.841091 29.841236 -176.227603 -4.836885 -174.712340 10.252899 -10.750194 6.663731 -0.987753 1.202146 0.606396 3.234453 -3.387386 -2.853615 8.387100 16.396700 53.945400 8.876609 16.637637 20.042007 2.499224 -0.273207 -2.006785 2.147702 -22.536683 -39.681641 -0.670800 -5.237400 14.586800 1.448161 -0.674941 -5.438468 -2.330724 -0.254273 3.434811 3.971768 -4.018666 1.464005 1.412900 -1.888000 -2.311700 -79.546803 1.583628 53.243581 9.776613 -15.497505 -1.588678 0.708749 -0.054999 -5.445445 -7.125000 0.000000 0.000000 82.092259 -9.776622 29.440485 -11.533813 16.362218 -3.458101 2.982867 2.490214 18.369353 7.125000 0.000000 0.000000 
9.910470 17.843744 29.840113 -176.040176 -4.903773 -174.750461 10.393989 -11.004138 6.733312 -0.994332 1.212305 0.641453 3.115297 -3.074608 -2.951713 8.267800 16.312700 53.521500 9.166395 16.866216 20.069569 2.514207 -0.336301 -1.856439 2.082104 -22.342642 -39.753541 -0.671200 -5.239100 14.591800 1.390359 -0.508285 -5.473423 -2.557550 -0.176042 3.209560 4.504345 -3.941198 1.157497 1.681600 -1.865200 -2.461700 -79.185936 1.486909 54.341451 9.942341 -15.687359 -1.622931 0.705166 -0.079433 -5.516460 -7.125000 0.000000 0.000000 82.620512 -10.258300 30.351519 -11.900096 16.787703 -3.555394 2.912425 2.552526 16.364977 7.125000 0.000000 0.000000 
9.910572 17.843336 29.832662 -175.948680 -4.986884 -174.820973 10.431881 -11.135812 6.857723 -1.009992 1.201998 0.614771 2.932637 -2.621695 -3.139210 8.089200 16.184400 52.883200 9.253383 16.807885 20.082694 2.507365 -0.399965 -1.698370 2.046988 -22.018611 -39.466027 -0.687600 -5.301400 14.770200 1.347372 -0.437424 -5.502938 -2.725425 -0.148606 3.020443 4.770172 -4.031366 0.618607 1.835900 -1.925800 -2.739800 -78.681075 1.554411 55.854336 10.338868 -16.203486 -1.730134 0.716534 -0.109229 -6.760470 -7.125000 0.000000 0.000000 83.023846 -10.670976 31.339194 -12.206901 17.139727 -3.627832 2.837176 2.606867 14.412622 7.125000 0.000000 0.000000 
9.909551 17.840172 29.826129 -175.838011 -5.058578 -174.964992 10.473867 -11.170162 7.027385 -1.021608 1.189519 0.590656 2.729299 -2.136781 -3.269946 7.895700 16.042000 52.186300 9.348149 16.604179 20.120113 2.495297 -0.456103 -1.557645 2.017991 -21.692144 -39.126437 -0.689400 -5.308200 14.789700 1.319554 -0.383667 -5.528600 -2.899583 -0.130849 2.770129 4.970589 -4.243987 -0.388141 1.990800 -2.054400 -3.279600 -78.579322 1.542318 55.546769 10.475345 -16.410736 -1.792921 0.762744 -0.123108 -6.600889 -7.125000 0.000000 0.000000 83.366641 -11.108564 32.291046 -12.513228 17.487025 -3.698941 2.757470 2.659379 12.420583 7.125000 0.000000 0.000000 
9.908836 17.833435 29.830416 -175.706176 -4.657785 -175.036348 10.438628 -11.290010 7.391778 -1.043660 1.161735 0.494309 2.587273 -1.781960 -3.937919 7.630100 15.840300 51.219000 9.222432 16.392033 19.729416 2.484036 -0.584195 -1.273258 2.233638 -21.816060 -38.162430 -0.576900 -4.863700 13.520200 1.292454 -0.142906 -5.583505 -2.970163 -0.017635 2.492785 5.063609 -4.087962 0.438641 2.040000 -1.956700 -2.795200 -78.583386 1.542058 55.242470 10.645059 -16.649863 -1.864153 0.806682 -0.139189 -6.289361 -7.125000 0.000000 0.000000 83.597923 -11.488426 33.235248 -12.760239 17.757720 -3.746967 2.681251 2.698414 10.517119 7.125000 0.000000 0.000000 
9.907509 17.824555 29.847666 -175.544242 -3.292329 -175.082046 10.157077 -11.475264 8.307705 -1.080661 1.081724 0.183639 2.670401 -1.939188 -5.651400 7.413500 15.670400 50.421300 8.668138 16.117881 18.618181 2.450217 -0.892961 -0.591342 2.764382 -22.158158 -35.733464 -0.363400 -3.872600 10.718500 1.209374 0.567234 -5.699390 -3.091274 0.312983 1.820671 5.064853 -4.152465 0.916160 2.036800 -1.979300 -2.522500 -78.423840 1.908581 56.171199 11.022421 -17.094522 -1.959828 0.793796 -0.127403 -5.924362 -7.125000 0.000000 0.000000 83.926767 -12.196565 35.307578 -13.218738 18.264816 -3.860274 2.537479 2.808802 6.546688 7.125000 0.000000 0.000000 
